<svg width="600.235" height="100.961" viewBox="0 0 452.235 78.961" xmlns="http://www.w3.org/2000/svg"><g id="svgGroup" stroke-linecap="round" fill-rule="evenodd" font-size="9pt" stroke="#ffffff" stroke-width="0.25mm" fill="#ffffff" style="stroke:#ffffff;stroke-width:0.25mm;fill:#ffffff"><path d="M 218.085 77.7 L 208.635 77.7 L 208.635 4.2 L 221.865 4.2 L 254.31 65.31 L 254.31 4.2 L 263.76 4.2 L 263.76 77.7 L 250.74 77.7 L 218.085 17.01 L 218.085 77.7 Z M 86.94 77.7 L 77.49 77.7 L 77.49 23.1 L 86.625 23.1 L 86.625 32.235 Q 89.565 27.825 94.133 24.833 A 18.182 18.182 0 0 1 101.593 22.077 A 23.761 23.761 0 0 1 105 21.84 Q 112.056 21.84 116.388 25.085 A 13.923 13.923 0 0 1 118.807 27.405 Q 123.375 32.97 123.375 42.105 L 123.375 77.7 L 113.925 77.7 L 113.925 43.155 A 20.228 20.228 0 0 0 113.566 39.227 Q 113.105 36.902 112.055 35.066 A 11.514 11.514 0 0 0 111.143 33.705 A 9.008 9.008 0 0 0 104.552 30.184 A 12.665 12.665 0 0 0 103.425 30.135 A 13.778 13.778 0 0 0 96.233 32.197 A 18.221 18.221 0 0 0 94.29 33.547 Q 89.985 36.96 86.94 41.58 L 86.94 77.7 Z M 68.04 75.075 L 58.905 78.75 L 50.715 57.75 L 16.695 57.75 L 8.505 78.54 L 0 75.075 L 28.77 4.2 L 39.69 4.2 L 68.04 75.075 Z M 380.52 28.56 L 380.52 0 L 389.97 0 L 389.97 64.47 A 12.757 12.757 0 0 0 390.077 66.187 Q 390.346 68.163 391.296 69.164 A 3.114 3.114 0 0 0 391.913 69.667 Q 393.855 70.875 396.165 70.875 L 394.17 78.225 Q 384.195 78.225 381.99 70.245 Q 379.714 73.452 375.654 76.15 A 33.838 33.838 0 0 1 375.532 76.23 Q 371.616 78.808 365.78 78.952 A 28.262 28.262 0 0 1 365.085 78.96 Q 358.365 78.96 352.8 75.495 A 23.827 23.827 0 0 1 344.885 67.314 A 29.003 29.003 0 0 1 343.98 65.678 A 28.909 28.909 0 0 1 341.262 57.338 A 39.082 39.082 0 0 1 340.725 50.715 A 35.637 35.637 0 0 1 341.658 42.405 A 29.361 29.361 0 0 1 344.033 35.91 A 28.655 28.655 0 0 1 348.882 28.99 A 25.395 25.395 0 0 1 352.852 25.62 Q 358.365 21.84 364.98 21.84 A 22.724 22.724 0 0 1 369.466 22.262 A 16.739 16.739 0 0 1 374.378 24.045 A 36.06 36.06 0 0 1 377.087 25.714 Q 378.371 26.59 379.391 27.483 A 17.42 17.42 0 0 1 380.52 28.56 Z M 451.92 54.285 L 413.7 54.285 Q 414.645 61.95 419.055 66.255 A 14.851 14.851 0 0 0 427.061 70.256 A 21.022 21.022 0 0 0 430.71 70.56 Q 435.435 70.56 439.215 69.563 Q 442.995 68.565 446.46 66.99 L 448.665 75.075 A 42.808 42.808 0 0 1 444.113 76.782 A 54.456 54.456 0 0 1 440.16 77.857 A 40.86 40.86 0 0 1 434.814 78.718 A 54.626 54.626 0 0 1 429.555 78.96 A 29.734 29.734 0 0 1 421.422 77.904 A 22.164 22.164 0 0 1 410.917 71.453 A 24.697 24.697 0 0 1 405.452 61.436 Q 404.393 57.762 404.128 53.391 A 49.481 49.481 0 0 1 404.04 50.4 A 37.126 37.126 0 0 1 404.914 42.187 A 30.282 30.282 0 0 1 407.137 35.752 A 25.874 25.874 0 0 1 412.404 28.317 A 24.032 24.032 0 0 1 415.8 25.567 Q 421.365 21.84 428.715 21.84 Q 435.84 21.84 440.773 24.634 A 18.074 18.074 0 0 1 441.787 25.253 Q 446.985 28.665 449.61 34.44 A 29.594 29.594 0 0 1 452.157 44.797 A 35.106 35.106 0 0 1 452.235 47.145 A 78.964 78.964 0 0 1 451.93 54.177 A 72.954 72.954 0 0 1 451.92 54.285 Z M 141.75 58.905 L 141.75 33.285 L 132.3 33.285 L 132.3 25.095 L 141.96 25.095 L 143.955 7.875 L 151.2 7.875 L 151.2 25.095 L 166.32 25.095 L 166.32 33.285 L 151.2 33.285 L 151.2 59.64 Q 151.2 65.73 153.773 68.145 Q 156.345 70.56 159.915 70.56 Q 162.54 70.56 164.903 69.72 A 27.019 27.019 0 0 0 168.24 68.283 A 23.906 23.906 0 0 0 169.26 67.725 L 171.885 75.285 Q 169.785 76.545 166.215 77.753 Q 162.645 78.96 158.76 78.96 A 23.749 23.749 0 0 1 158.637 78.96 Q 155.656 78.944 153.152 78.179 A 14.62 14.62 0 0 1 146.317 73.762 A 16.921 16.921 0 0 1 142.928 67.565 Q 141.75 63.81 141.75 58.905 Z M 295.534 77.554 A 28.575 28.575 0 0 0 304.605 78.96 Q 312.375 78.96 318.518 75.39 Q 324.66 71.82 328.23 65.363 A 27.568 27.568 0 0 0 331.016 57.864 A 35.893 35.893 0 0 0 331.8 50.19 A 36.269 36.269 0 0 0 331.291 43.986 A 27.084 27.084 0 0 0 328.178 35.123 Q 324.555 28.77 318.412 25.305 Q 312.27 21.84 304.605 21.84 A 32.891 32.891 0 0 0 302.946 21.881 A 27.478 27.478 0 0 0 290.745 25.305 Q 284.55 28.77 280.98 35.175 A 27.324 27.324 0 0 0 278.093 43.145 A 36.756 36.756 0 0 0 277.41 50.4 A 36.561 36.561 0 0 0 277.688 54.971 A 28.823 28.823 0 0 0 280.927 65.257 Q 284.445 71.715 290.64 75.338 A 25.787 25.787 0 0 0 295.534 77.554 Z M 190.785 77.7 L 181.335 77.7 L 181.335 23.1 L 190.785 23.1 L 190.785 77.7 Z M 304.605 70.56 A 19.679 19.679 0 0 0 310.092 69.834 A 14.701 14.701 0 0 0 317.52 64.942 A 19.742 19.742 0 0 0 321.53 56.448 A 28.46 28.46 0 0 0 322.14 50.4 A 22.445 22.445 0 0 0 320.854 42.749 A 21.015 21.015 0 0 0 319.83 40.373 A 20.158 20.158 0 0 0 315.45 34.525 A 19.079 19.079 0 0 0 313.582 33.023 Q 309.645 30.24 304.605 30.24 A 20.211 20.211 0 0 0 299.118 30.945 A 14.739 14.739 0 0 0 291.69 35.7 Q 287.246 40.952 287.077 49.507 A 34.513 34.513 0 0 0 287.07 50.19 Q 287.07 55.65 289.38 60.323 A 20.409 20.409 0 0 0 293.086 65.614 A 18.509 18.509 0 0 0 295.627 67.777 Q 299.565 70.56 304.605 70.56 Z M 380.52 63.945 L 380.52 36.855 Q 378.726 34.589 375.658 32.62 A 29.546 29.546 0 0 0 374.955 32.183 Q 371.385 30.03 367.08 30.03 A 15.693 15.693 0 0 0 361.876 30.87 A 14.054 14.054 0 0 0 358.26 32.76 A 17.525 17.525 0 0 0 352.832 39.217 A 20.921 20.921 0 0 0 352.432 40.057 Q 350.385 44.625 350.385 50.4 Q 350.385 56.175 352.59 60.743 Q 354.795 65.31 358.628 67.935 Q 362.46 70.56 367.185 70.56 Q 371.07 70.56 374.588 68.723 Q 378.105 66.885 380.52 63.945 Z M 33.705 14.07 L 19.845 49.35 L 47.46 49.35 L 33.705 14.07 Z M 413.595 46.62 L 443.52 46.62 A 25.573 25.573 0 0 0 443.096 41.805 Q 442.575 39.092 441.415 36.967 A 13.043 13.043 0 0 0 439.53 34.335 Q 435.54 30.03 428.505 30.03 Q 422.415 30.03 418.425 34.283 Q 415.104 37.822 413.965 44.017 A 33.622 33.622 0 0 0 413.595 46.62 Z M 181.479 11.852 A 6.271 6.271 0 0 0 186.06 13.755 A 8.584 8.584 0 0 0 187.631 13.618 A 5.93 5.93 0 0 0 190.89 11.918 A 6.066 6.066 0 0 0 192.386 9.327 A 7.886 7.886 0 0 0 192.675 7.14 A 7.626 7.626 0 0 0 192.675 7.055 A 6.363 6.363 0 0 0 190.733 2.468 A 7.761 7.761 0 0 0 190.672 2.407 A 6.361 6.361 0 0 0 186.06 0.525 A 8.677 8.677 0 0 0 184.321 0.691 A 5.944 5.944 0 0 0 181.23 2.31 A 5.867 5.867 0 0 0 179.686 5.074 A 8.387 8.387 0 0 0 179.445 7.14 A 6.291 6.291 0 0 0 179.961 9.68 A 6.975 6.975 0 0 0 181.387 11.76 A 7.839 7.839 0 0 0 181.479 11.852 Z" vector-effect="non-scaling-stroke"/></g></svg>
